<?xml version="1.0" encoding="UTF-8" standalone="no"?>
<!-- Created with Inkscape (http://www.inkscape.org/) -->

<svg
   id="svg2"
   version="1.1"
   width="64"
   height="64"
   xml:space="preserve"
   xmlns="http://www.w3.org/2000/svg"
   xmlns:svg="http://www.w3.org/2000/svg"
   xmlns:rdf="http://www.w3.org/1999/02/22-rdf-syntax-ns#"
   xmlns:cc="http://creativecommons.org/ns#"
   xmlns:dc="http://purl.org/dc/elements/1.1/"><metadata
     id="metadata8"><rdf:RDF><cc:Work
         rdf:about=""><dc:format>image/svg+xml</dc:format><dc:type
           rdf:resource="http://purl.org/dc/dcmitype/StillImage" /><dc:title /></cc:Work></rdf:RDF></metadata><defs
     id="defs6"><clipPath
       clipPathUnits="userSpaceOnUse"
       id="clipPath16"><path
         d="M 0,297.619 H 595.28 V 0 H 0 Z"
         id="path18" /></clipPath></defs><g
     id="g10"
     transform="matrix(1.25,0,0,-1.25,4.2688248e-7,372.02374)"><g
       id="g12"
       transform="matrix(1.1108863,0,0,1.1859945,-33.325658,-45.519665)"><g
         id="g14"
         clip-path="url(#clipPath16)"><g
           id="g20"
           transform="matrix(0.23992723,0,0,0.32301581,73.804814,260.48145)"><path
             d="m 0,0 c 0,0 -3.464,7.263 -7.365,13.092 -3.901,5.83 -6.492,8.892 -6.492,8.892 l -5.958,-0.102 C -19.83,21.149 -19.858,20.374 -19.9,19.554 -20.174,14.21 -22.015,5.356 -31.021,5.079 c -9.284,-0.285 -14.09,9.957 -15.188,16.309 l -20.587,-0.384 c 0,0 0.217,-16.829 -10.05,-17.868 -13.698,-1.388 -19.316,17.319 -19.316,17.319 l -11.309,-0.211 c 0,0 2.452,-3.803 4.983,-10.32 2.532,-6.517 3.529,-12.979 3.529,-12.979 z"
             style="fill:#e84e2e;fill-opacity:1;fill-rule:nonzero;stroke:none"
             id="path22" /></g><g
           id="g24"
           transform="matrix(0.23992723,0,0,0.32301581,73.804814,260.48145)"><path
             d="m 0,0 -98.959,-3.055 c 0,0 0.846,-4.754 -0.32,-16.035 -1.344,-12.997 -3.299,-16.145 -3.299,-16.145 l 92.252,3.979 c 0,0 3.93,5.503 6.728,14.964 C -1.01,-7.541 0,0 0,0"
             style="fill:#c22524;fill-opacity:1;fill-rule:nonzero;stroke:none"
             id="path26" /></g><g
           id="g28"
           transform="matrix(0.23992723,0,0,0.32301581,43.052116,266.65474)"><path
             d="m 0,0 c 0.479,-0.188 9.909,-2.976 11.325,-22.227 1.668,-22.689 -2.972,-29.679 -8.105,-30.337 -5.132,-0.658 -7.385,2.996 -7.385,2.996 0,0 1.697,-14.093 11.932,-13.893 9.785,0.192 19.532,9.774 17.699,38.662 C 24.337,-7.014 17.231,5.447 9.3,5.592 0.053,5.762 -0.479,0.188 0,0"
             style="fill:#203742;fill-opacity:1;fill-rule:nonzero;stroke:none"
             id="path30" /></g><g
           id="g32"
           transform="matrix(0.23992723,0,0,0.32301581,41.611426,257.77057)"><path
             d="m 0,0 c 0.683,-11.509 4.295,-20.658 8.067,-20.434 3.772,0.224 6.276,9.736 5.593,21.245 C 12.976,12.32 9.364,21.469 5.592,21.245 1.82,21.021 -0.683,11.509 0,0"
             style="fill:#fab627;fill-opacity:1;fill-rule:nonzero;stroke:none"
             id="path34" /></g><g
           id="g36"
           transform="matrix(0.23992723,0,0,0.32301581,30.543439,265.65722)"><path
             d="m 0,0 c 0,0 7.739,3.989 8.786,-13.494 0.826,-13.782 -1.164,-17.934 -3.85,-19.907 -1.809,-1.329 -4.08,0 -4.08,0 0,0 -0.714,-7.961 6.125,-7.516 6.839,0.445 13.056,7.117 12.229,27.069 C 18.655,-0.451 11.715,6.477 6.172,6.126 -0.292,5.716 0,0 0,0"
             style="fill:#203742;fill-opacity:1;fill-rule:nonzero;stroke:none"
             id="path38" /></g><g
           id="g40"
           transform="matrix(0.23992723,0,0,0.32301581,30.008689,260.19597)"><path
             d="M 0,0 C 0.339,-8.189 2.759,-14.719 5.404,-14.586 8.049,-14.453 9.918,-7.707 9.578,0.482 9.239,8.67 6.819,15.201 4.174,15.068 1.53,14.935 -0.339,8.189 0,0"
             style="fill:#fab627;fill-opacity:1;fill-rule:nonzero;stroke:none"
             id="path42" /></g><g
           id="g44"
           transform="matrix(0.23992723,0,0,0.32301581,51.286876,273.6889)"><path
             d="m 0,0 c 0,0 4.048,4.777 7.432,5.143 3.385,0.366 7.265,-1.513 7.265,-1.513 0,0 -4.171,5.391 -8.462,3.716 C 1.943,5.671 0,0 0,0"
             style="fill:#203742;fill-opacity:1;fill-rule:nonzero;stroke:none"
             id="path46" /></g><g
           id="g52"
           transform="translate(310.8336,142.5578)" /><g
           id="g64"
           transform="matrix(0.23992723,0,0,0.32301581,66.446558,258.26691)"><path
             d="M 0,0 C 0.285,0.277 0.213,1.103 -0.435,1.539 -1.083,1.975 -2.902,0.483 -5.847,0.985 -8.735,1.477 -9.692,3.282 -10.411,3.171 -11.13,3.06 -11.555,2.582 -11.413,1.925 c 0.142,-0.657 1.561,-1.238 4.192,-1.904 -0.774,-1.785 -2.3,-6.165 -11.719,-8.748 -10.492,-2.876 -17.203,4.23 -19.981,6.889 3.151,1.86 3.409,3.738 3.054,4.059 -0.356,0.32 -1.411,0.477 -1.595,-0.118 -0.183,-0.595 -0.043,-1.96 -3.289,-3.481 -3.593,-1.685 -4.524,-0.701 -5.351,-1.174 -0.827,-0.472 -0.843,-1.254 -0.16,-1.591 1.172,-0.579 6.349,1.778 6.415,1.81 1.885,-4.531 9.751,-18.103 20.907,-15.956 7.401,1.424 13.67,14.337 13.208,18.018 0.759,-0.108 1.483,-0.154 2.143,-0.154 2.055,0 3.304,0.148 3.589,0.425"
             style="fill:#ffffff;fill-opacity:1;fill-rule:nonzero;stroke:none"
             id="path66" /></g><g
           id="g68"
           transform="matrix(0.23992723,0,0,0.32301581,55.95442,264.59946)"><path
             d="m 0,0 c 0.089,1.233 0.028,2.775 -0.093,4.752 -0.647,10.636 -5.572,12.525 -6.404,12.1 -0.176,-0.089 -0.378,-0.315 -0.59,-0.604 0.007,-0.116 0.015,-0.23 0.018,-0.348 0.079,-3.001 -1.041,-5.465 -2.501,-5.504 -1.46,-0.038 -2.708,2.364 -2.786,5.366 -0.031,1.155 0.118,2.23 0.394,3.118 -2.014,1.498 -3.844,-0.201 -3.844,-0.201 0,0 -0.182,-0.235 -0.376,-0.658 -0.331,3.365 -0.051,5.887 2.671,6.77 0.877,0.284 1.833,0.568 3.022,0.649 7.079,0.479 9.204,-4.2 10.822,-12.712 C 1.303,7.627 1.09,3.126 0,0 m 2.557,11.785 c -0.915,8.632 -3.686,16.554 -12.27,16.354 -8.584,-0.2 -9.234,-7.534 -7.826,-14.941 1.753,-9.219 6.889,-20.985 13.965,-19.276 7.075,1.708 7.047,9.227 6.131,17.863"
             style="fill:#203742;fill-opacity:1;fill-rule:nonzero;stroke:none"
             id="path70" /></g><g
           id="g72"
           transform="matrix(0.23992723,0,0,0.32301581,40.803902,259.17291)"><path
             d="m 0,0 c 0,0 -0.201,-5.084 0.598,-12.624 0.8,-7.54 3.455,-12.371 3.455,-12.371 l -29.602,8.289 c 0,0 2.068,2.283 3.622,11.179 0.766,4.382 0.593,7.873 0.593,7.873 z"
             style="fill:#c22524;fill-opacity:1;fill-rule:nonzero;stroke:none"
             id="path74" /></g><g
           id="g76"
           transform="matrix(0.23992723,0,0,0.32301581,41.134666,262.83812)"><path
             d="m 0,0 c 1.333,7.719 4.179,12.655 4.179,12.655 h -33.604 c 0,0 3.398,-3.045 5.128,-10.322 1.253,-5.273 1.584,-11.334 1.584,-11.334 l 21.334,-2.346 c 0,0 0.046,3.628 1.379,11.347"
             style="fill:#e84e2e;fill-opacity:1;fill-rule:nonzero;stroke:none"
             id="path78" /></g><g
           id="g80"
           transform="matrix(0.23992723,0,0,0.32301581,63.18681,274.29652)"><path
             d="m 0,0 c 0,0 4.433,4.422 7.836,4.504 3.403,0.082 7.113,-2.114 7.113,-2.114 0,0 -3.707,5.72 -8.123,4.41 C 2.41,5.489 0,0 0,0"
             style="fill:#203742;fill-opacity:1;fill-rule:nonzero;stroke:none"
             id="path82" /></g><g
           id="g84"
           transform="matrix(0.23992723,0,0,0.32301581,67.272796,265.10202)"><path
             d="M 0,0 C 0.191,1.222 0.259,2.763 0.305,4.743 0.548,15.396 -4.202,17.69 -5.066,17.336 -5.25,17.261 -5.469,17.054 -5.705,16.783 -5.708,16.667 -5.71,16.552 -5.716,16.435 -5.888,13.438 -7.21,11.076 -8.668,11.159 c -1.458,0.084 -2.501,2.582 -2.329,5.58 0.067,1.154 0.305,2.212 0.654,3.074 -1.882,1.662 -3.848,0.121 -3.848,0.121 0,0 -0.199,-0.218 -0.427,-0.621 -0.048,3.378 0.441,5.868 3.225,6.52 0.898,0.21 1.874,0.413 3.066,0.394 C -1.233,26.113 0.494,21.273 1.395,12.655 1.935,7.491 1.347,3.024 0,0 M 3.533,11.531 C 3.342,20.208 0.32,28.462 -7.483,28.465 c -7.803,0.002 -9.676,-6.35 -8.892,-13.848 0.976,-9.333 5.112,-21.487 12.305,-20.376 7.194,1.112 7.794,8.607 7.603,17.29"
             style="fill:#203742;fill-opacity:1;fill-rule:nonzero;stroke:none"
             id="path86" /></g><g
           id="g88"
           transform="matrix(0.23992723,0,0,0.32301581,42.207716,267.78056)"><path
             d="m 0,0 c 0.63,0.268 1.618,5.223 9.954,5.992 8.336,0.77 10.53,-3.894 11.166,-3.881 0.635,0.013 13.186,0.269 13.186,0.269 0,0 -7.841,23.58 10.478,25.085 C 56.065,28.392 61.531,21.45 63.448,13.462 64.922,7.324 65.222,3.22 65.222,3.22 l 18.461,0.517 c 0,0 -2.013,9.922 1.229,18.662 3.853,10.383 14.271,5.466 14.271,5.466 l 0.009,6.472 c 0,0 -3.408,1.01 -14.119,-0.644 -10.711,-1.653 -15.295,-6.132 -15.295,-6.132 0,0 -8.008,6.736 -34.697,6.909 C 8.515,34.642 0.874,30.381 0.154,29.911 -0.566,29.44 -0.63,-0.268 0,0"
             style="fill:#fab627;fill-opacity:1;fill-rule:nonzero;stroke:none"
             id="path90" /></g><g
           id="g92"
           transform="matrix(0.23992723,0,0,0.32301581,58.88993,281.07036)"><path
             d="m 0,0 c 3.622,0.88 59.797,14.576 59.985,17.408 0.117,1.772 -85.685,8.149 -85.685,8.149 0,0 -91.518,-10.991 -91.084,-13.748 C -116.349,9.052 -3.622,-0.88 0,0"
             style="fill:#e84e2e;fill-opacity:1;fill-rule:nonzero;stroke:none"
             id="path94" /></g><g
           id="g96"
           transform="matrix(0.23992723,0,0,0.32301581,72.391476,283.65416)"><path
             d="m 0,0 c -2.603,0 -4.606,-21.905 -4.606,-21.905 0,0 1.179,-0.781 4.615,-0.781 3.435,0 4.614,0.781 4.614,0.781 C 4.623,-21.905 2.603,0 0,0"
             style="fill:#203742;fill-opacity:1;fill-rule:nonzero;stroke:none"
             id="path98" /></g><g
           id="g100"
           transform="matrix(0.23992723,0,0,0.32301581,73.020036,283.84662)"><path
             d="M 0,0 C 0,-1.045 -0.847,-1.893 -1.893,-1.893 H -3.33 c -1.045,0 -1.892,0.848 -1.892,1.893 v 1.291 c 0,1.045 0.847,1.892 1.892,1.892 h 1.437 C -0.847,3.183 0,2.336 0,1.291 Z"
             style="fill:#203742;fill-opacity:1;fill-rule:nonzero;stroke:none"
             id="path102" /></g><g
           id="g108"
           transform="matrix(0.23992723,0,0,0.32301581,37.249141,276.4867)"><path
             d="m 0,0 v -27.291 h 18.069 c 0,0 -0.48,12.258 -0.333,17.518 0.146,5.261 0.34,12.234 0.34,12.234 z"
             style="fill:#e49023;fill-opacity:1;fill-rule:nonzero;stroke:none"
             id="path110" /></g><g
           id="g112"
           transform="matrix(0.23992723,0,0,0.32301581,37.249141,277.55954)"><path
             d="M 0,0 18.069,2.502 18.064,15.007 0,16.576 Z"
             style="fill:#c22524;fill-opacity:1;fill-rule:nonzero;stroke:none"
             id="path114" /></g><g
           id="g116"
           transform="matrix(0.23992723,0,0,0.32301581,58.857468,280.35388)"><path
             d="M 0,0 -69.748,6.206 V -5.73 c 3.581,0.728 19.072,3.947 37.28,3.453 23.539,-0.64 32.051,-5.888 32.051,-5.888 0,0 9.125,3.886 16.57,5.186 7.446,1.301 13.635,0.375 13.635,0.375 l 0.009,10.769 z"
             style="fill:#c22524;fill-opacity:1;fill-rule:nonzero;stroke:none"
             id="path118" /></g><g
           id="g120"
           transform="matrix(0.23992723,0,0,0.32301581,73.533434,248.16941)"><path
             d="M 0,0 C 3.076,2.493 5.69,6.569 7.324,12.672 5.439,6.782 2.881,2.674 0,0"
             style="fill:#306d80;fill-opacity:1;fill-rule:nonzero;stroke:none"
             id="path122" /></g><g
           id="g124"
           transform="matrix(0.23992723,0,0,0.32301581,76.064402,260.14125)"><path
             d="m 0,0 c -1.129,17.785 -9.87,28.632 -17.801,28.777 -5.804,0.107 -8.173,-2.05 -9.016,-3.716 l 4.223,0.044 c 0,0 3.698,-3.198 8.485,-10.822 3.792,-6.038 6.803,-13.448 6.803,-13.448 0,0 0.087,-4.88 -3.571,-16.456 -3.391,-10.73 -6.866,-15.994 -6.866,-15.994 l -12.01,-0.396 c 1.562,-3.901 4.618,-8.379 10.42,-8.265 3.048,0.06 6.092,1.031 8.784,3.213 2.881,2.675 5.439,6.782 7.325,12.672 C -1.697,-18.69 0.61,-9.607 0,0"
             style="fill:#203742;fill-opacity:1;fill-rule:nonzero;stroke:none"
             id="path126" /></g></g></g></g></svg>
